<?xml version="1.0" encoding="utf-8"?>
<!-- Generator: Adobe Illustrator 16.0.0, SVG Export Plug-In . SVG Version: 6.00 Build 0)  -->
<!DOCTYPE svg PUBLIC "-//W3C//DTD SVG 1.1//EN" "http://www.w3.org/Graphics/SVG/1.1/DTD/svg11.dtd">
<svg version="1.1" id="Layer_1" xmlns="http://www.w3.org/2000/svg" xmlns:xlink="http://www.w3.org/1999/xlink" x="0px" y="0px"
	 width="13.8px" height="13.799px" viewBox="0 0 13.8 13.799" enable-background="new 0 0 13.8 13.799" xml:space="preserve">
<path fill="#4783C4" d="M0,2.3L2.3,0C3.833,1.533,5.366,3.067,6.9,4.6C8.434,3.067,9.967,1.533,11.5,0l2.3,2.3
	c-1.533,1.534-3.067,3.067-4.6,4.6c1.532,1.534,3.066,3.067,4.6,4.601c-0.767,0.767-1.533,1.533-2.3,2.299
	c-1.533-1.532-3.066-3.065-4.6-4.6c-1.534,1.534-3.067,3.067-4.601,4.6C1.533,13.034,0.767,12.267,0,11.5
	C1.533,9.967,3.066,8.434,4.6,6.9C3.066,5.367,1.533,3.834,0,2.3"/>
</svg>
