<?xml version="1.0" encoding="utf-8"?>
<!-- Generator: Adobe Illustrator 16.0.0, SVG Export Plug-In . SVG Version: 6.00 Build 0)  -->
<!DOCTYPE svg PUBLIC "-//W3C//DTD SVG 1.1//EN" "http://www.w3.org/Graphics/SVG/1.1/DTD/svg11.dtd">
<svg version="1.1" id="Layer_1" xmlns="http://www.w3.org/2000/svg" xmlns:xlink="http://www.w3.org/1999/xlink" x="0px" y="0px"
	 width="12.638px" height="12.639px" viewBox="0 0 12.638 12.639" enable-background="new 0 0 12.638 12.639" xml:space="preserve">
<path fill="#4783C4" d="M6.319,0C2.829,0,0,2.828,0,6.319c0,3.489,2.829,6.319,6.319,6.319s6.319-2.83,6.319-6.319
	C12.638,2.828,9.809,0,6.319,0 M8.524,11.892c-0.261,0.126-0.594,0.258-0.99,0.354c-0.471,0.117-0.889,0.15-1.215,0.151
	c0.003,0,0.003-1.678,0.001-3.267H6.319c-1.553,0-2.812-1.26-2.812-2.812c0-0.764,0.307-1.454,0.8-1.96L1.985,2.057
	c0.329-0.36,0.981-0.983,2.001-1.402c0.981-0.404,1.85-0.433,2.333-0.413c0.004,0.575,0,1.948-0.004,3.267
	c0.001,0,0.002-0.001,0.004-0.001c1.553,0,2.812,1.259,2.812,2.813c0,1.19-0.742,2.202-1.787,2.612
	C7.737,9.918,8.13,10.905,8.524,11.892"/>
<path fill="#FFFFFF" d="M6.315,3.508c0.004-1.318,0.008-2.691,0.004-3.267C5.836,0.222,4.967,0.25,3.986,0.654
	c-1.02,0.419-1.672,1.042-2.001,1.402l2.322,2.303C4.817,3.836,5.527,3.509,6.315,3.508"/>
<path fill="#FFFFFF" d="M6.319,12.397c0.326-0.001,0.744-0.034,1.215-0.15c0.396-0.098,0.729-0.229,0.99-0.355
	c-0.393-0.986-0.787-1.973-1.18-2.96C7.027,9.057,6.683,9.131,6.32,9.131C6.322,10.72,6.322,12.397,6.319,12.397"/>
<path fill="#4783C4" d="M9.13,6.318c0-1.553-1.258-2.812-2.812-2.812c-0.001,0-0.002,0.001-0.004,0.001
	C5.527,3.509,4.818,3.836,4.307,4.359c-0.493,0.506-0.8,1.196-0.8,1.959c0,1.554,1.259,2.813,2.812,2.813H6.32
	c0.363,0,0.707-0.074,1.024-0.199C8.388,8.521,9.13,7.51,9.13,6.318 M6.319,8.922c-1.437,0-2.603-1.165-2.603-2.604
	c0-1.437,1.166-2.603,2.603-2.603s2.603,1.166,2.603,2.603C8.921,7.757,7.756,8.922,6.319,8.922"/>
<path fill="#FFFFFF" d="M6.319,3.716c-1.437,0-2.603,1.166-2.603,2.604s1.166,2.603,2.603,2.603s2.603-1.165,2.603-2.603
	S7.756,3.716,6.319,3.716 M6.319,6.895C6,6.895,5.742,6.636,5.742,6.317S6,5.739,6.319,5.739s0.578,0.26,0.578,0.578
	S6.638,6.895,6.319,6.895"/>
<path fill="#4783C4" d="M6.896,6.317c0-0.319-0.259-0.578-0.578-0.578C6,5.739,5.742,5.998,5.742,6.317
	c0,0.318,0.259,0.577,0.577,0.577C6.638,6.895,6.896,6.636,6.896,6.317"/>
</svg>
