<?xml version="1.0" encoding="utf-8"?>
<!-- Generator: Adobe Illustrator 16.0.0, SVG Export Plug-In . SVG Version: 6.00 Build 0)  -->
<!DOCTYPE svg PUBLIC "-//W3C//DTD SVG 1.1//EN" "http://www.w3.org/Graphics/SVG/1.1/DTD/svg11.dtd">
<svg version="1.1" id="Layer_1" xmlns="http://www.w3.org/2000/svg" xmlns:xlink="http://www.w3.org/1999/xlink" x="0px" y="0px"
	 width="19.716px" height="20.746px" viewBox="0 0 19.716 20.746" enable-background="new 0 0 19.716 20.746" xml:space="preserve">
<g>
	<path fill="#878787" d="M7.78,19.677c-0.354-0.225-2.229-1.467-2.424-3.517c-0.041-0.434-0.139-1.455,0.539-2.34
		c0.406-0.533,0.808-0.643,1.549-1.346c0.625-0.596,1.025-1.17,1.27-1.572c0,0,0.791,2.748,0.791,4.123c0,0,2.375-4.123,2.375-6.872
		c0,0,2.371,5.571,1.977,7.597c-0.396,2.024-1.768,3.927-1.768,3.927s5.184-0.418,5.521-4.804c0.336-4.388-1.213-6.173-1.213-7.123
		c0-0.949,0.201-1.592,0.201-1.592s-1.412,0.35-1.412,0.935s-2.693-4.68-4.578-6.025c0,0-0.741,5.383-2.626,6.376
		c0,0,0.403-1.17-1.212-2.34c0,0-0.471,2.34-2.491,4.329s-2.222,4.095-2.222,5.558C2.058,16.451,3.472,19.677,7.78,19.677"/>
</g>
</svg>
