<?xml version="1.0" encoding="utf-8"?>
<!-- Generator: Adobe Illustrator 16.0.0, SVG Export Plug-In . SVG Version: 6.00 Build 0)  -->
<!DOCTYPE svg PUBLIC "-//W3C//DTD SVG 1.1//EN" "http://www.w3.org/Graphics/SVG/1.1/DTD/svg11.dtd">
<svg version="1.1" id="Layer_1" xmlns="http://www.w3.org/2000/svg" xmlns:xlink="http://www.w3.org/1999/xlink" x="0px" y="0px"
	 width="28.402px" height="27.061px" viewBox="0 0 28.402 27.061" enable-background="new 0 0 28.402 27.061" xml:space="preserve">
<path fill="#FFFFFF" d="M3.156,17.943C2.104,20.982,1.052,24.021,0,27.061h28.402c-1.052-3.039-2.104-6.078-3.156-9.117h-6.312
	c-1.403,1.736-2.805,3.473-4.208,5.21c-1.402-1.737-2.805-3.474-4.207-5.21H3.156z"/>
<path fill="#FFFFFF" d="M14.725,0C13.729,0,11.4,0.184,9.474,1.961C7.517,3.766,7.166,6.038,7.055,6.865
	c-0.54,3.999,1.963,6.953,2.41,7.462c1.766,2.117,3.532,4.235,5.299,6.353c1.693-2.062,3.387-4.123,5.081-6.183
	c0.528-0.626,2.931-3.605,2.437-7.598C22.174,6.043,21.871,3.773,20,1.998C17.938,0.043,15.391,0.001,14.725,0 M14.829,12.938
	c-2.858,0.001-5.115-2.437-5.149-5.194c-0.035-2.826,2.274-5.35,5.19-5.327c2.902,0.024,5.162,2.563,5.103,5.372
	C19.916,10.526,17.67,12.937,14.829,12.938"/>
<path fill="#FFFFFF" d="M19.234,6.715c-2.887,0.008-5.772,0.015-8.66,0.022c1.448,1.459,2.895,2.917,4.343,4.376
	C16.357,9.647,17.796,8.181,19.234,6.715"/>
</svg>
