<?xml version="1.0" encoding="utf-8"?>
<!-- Generator: Adobe Illustrator 16.0.0, SVG Export Plug-In . SVG Version: 6.00 Build 0)  -->
<!DOCTYPE svg PUBLIC "-//W3C//DTD SVG 1.1//EN" "http://www.w3.org/Graphics/SVG/1.1/DTD/svg11.dtd">
<svg version="1.1" id="Layer_1" xmlns="http://www.w3.org/2000/svg" xmlns:xlink="http://www.w3.org/1999/xlink" x="0px" y="0px"
	 width="19.716px" height="20.746px" viewBox="0 0 19.716 20.746" enable-background="new 0 0 19.716 20.746" xml:space="preserve">
<g>
	<path fill="#878787" d="M16.276,6.008c-0.686-1.713-1.371-3.424-2.057-5.135H3.951C3.267,2.584,2.582,4.295,1.896,6.008H0.869
		l1.027,1.026v7.19H3.82c0.387-0.686,0.771-1.369,1.158-2.055h8.216c0.195,0.686,0.393,1.369,0.59,2.055c0.83,0,1.66,0,2.492,0
		v-7.19l1.025-1.026H16.276z M3.951,10.116c-0.566,0-1.027-0.46-1.027-1.027c0-0.566,0.461-1.026,1.027-1.026
		s1.027,0.46,1.027,1.026C4.978,9.656,4.517,10.116,3.951,10.116 M14.22,10.116c-0.566,0-1.025-0.46-1.025-1.027
		c0-0.566,0.459-1.026,1.025-1.026c0.568,0,1.029,0.46,1.029,1.026C15.249,9.656,14.788,10.116,14.22,10.116 M2.923,6.008
		c0.568-1.424,1.139-2.846,1.709-4.27c1.504,0.028,7.49,0.03,8.91,0.006c0.57,1.422,1.137,2.842,1.707,4.264H2.923z"/>
	<path fill="none" d="M3.121,14.225c0,0,6.479,2.566,3.398,5.646"/>
	<path fill="none" stroke="#878787" stroke-width="0.5" stroke-linecap="round" stroke-miterlimit="10" d="M3.121,14.225
		c0,0,6.479,2.566,3.398,5.646"/>
	<path fill="none" d="M14.417,14.225c0.5,0.178,3.424,1.279,4.229,4.016c0.168,0.576,0.217,1.129,0.197,1.631"/>
	<path fill="none" stroke="#878787" stroke-width="0.5" stroke-linecap="round" stroke-miterlimit="10" d="M14.417,14.225
		c0.5,0.178,3.424,1.279,4.229,4.016c0.168,0.576,0.217,1.129,0.197,1.631"/>
</g>
</svg>
