<?xml version="1.0" encoding="utf-8"?>
<!-- Generator: Adobe Illustrator 16.0.0, SVG Export Plug-In . SVG Version: 6.00 Build 0)  -->
<!DOCTYPE svg PUBLIC "-//W3C//DTD SVG 1.1//EN" "http://www.w3.org/Graphics/SVG/1.1/DTD/svg11.dtd">
<svg version="1.1" id="Layer_1" xmlns="http://www.w3.org/2000/svg" xmlns:xlink="http://www.w3.org/1999/xlink" x="0px" y="0px"
	 width="19.716px" height="20.746px" viewBox="0 0 19.716 20.746" enable-background="new 0 0 19.716 20.746" xml:space="preserve">
<g>
	<path fill="#878787" d="M14.584,1.786v5.479c-1.574-1.768-3.15-3.537-4.727-5.305c0.01,1.617,0.016,3.232,0.023,4.848
		c-1.508-1.615-3.014-3.23-4.523-4.848v5c-1.5-1.666-3-3.332-4.5-5V18.96h18.002V7.264C17.434,5.438,16.01,3.612,14.584,1.786
		 M5.857,15.959h-3v-2h3V15.959z M5.857,11.959h-3v-2h3V11.959z M10.857,15.959h-3v-2h3V15.959z M10.857,11.959h-3v-2h3V11.959z
		 M15.859,15.959h-3v-2h3V15.959z M15.859,11.959h-3v-2h3V11.959z"/>
</g>
</svg>
