<?xml version="1.0" encoding="utf-8"?>
<!-- Generator: Adobe Illustrator 16.0.0, SVG Export Plug-In . SVG Version: 6.00 Build 0)  -->
<!DOCTYPE svg PUBLIC "-//W3C//DTD SVG 1.1//EN" "http://www.w3.org/Graphics/SVG/1.1/DTD/svg11.dtd">
<svg version="1.1" id="Layer_1" xmlns="http://www.w3.org/2000/svg" xmlns:xlink="http://www.w3.org/1999/xlink" x="0px" y="0px"
	 width="25.249px" height="27.442px" viewBox="0 0 25.249 27.442" enable-background="new 0 0 25.249 27.442" xml:space="preserve">
<path fill="#FFFFFF" d="M12.624,0c0.177,0,0.47,0.108,0.971,1.098c0.341,0.674,0.779,1.757,0.971,3.293v5.488l10.683,8.782v2.195
	c-3.562-1.463-7.123-2.928-10.683-4.391c0.007,0.358,0.008,0.725,0,1.098c-0.051,2.473-0.446,4.687-0.971,6.586
	c0.971,0.731,1.942,1.464,2.913,2.195v1.098c-1.109-0.226-2.217-0.451-3.326-0.677c-0.186,0.226-0.372,0.451-0.558,0.677
	c-0.194-0.22-0.388-0.439-0.582-0.659c-1.101,0.22-2.202,0.439-3.302,0.659v-1.098c0.971-0.731,1.942-1.464,2.913-2.195
	c-0.526-1.899-0.92-4.113-0.971-6.586c-0.008-0.373-0.008-0.739,0-1.098C7.121,17.929,3.561,19.394,0,20.856v-2.195
	c3.561-2.928,7.121-5.854,10.682-8.782V4.391c0.192-1.536,0.63-2.619,0.971-3.293C12.154,0.108,12.447,0,12.624,0"/>
</svg>
