<?xml version="1.0" encoding="utf-8"?>
<!-- Generator: Adobe Illustrator 16.0.0, SVG Export Plug-In . SVG Version: 6.00 Build 0)  -->
<!DOCTYPE svg PUBLIC "-//W3C//DTD SVG 1.1//EN" "http://www.w3.org/Graphics/SVG/1.1/DTD/svg11.dtd">
<svg version="1.1" id="Layer_1" xmlns="http://www.w3.org/2000/svg" xmlns:xlink="http://www.w3.org/1999/xlink" x="0px" y="0px"
	 width="19.716px" height="20.746px" viewBox="0 0 19.716 20.746" enable-background="new 0 0 19.716 20.746" xml:space="preserve">
<g>
	<path fill="#878787" d="M17.657,1.373H2.057c-0.2,0.6-0.399,1.2-0.6,1.8h0.6v16.201h6.601v-3.6h1.8v3.6h7.2V3.172h0.602
		C18.058,2.573,17.858,1.972,17.657,1.373 M5.657,12.774H3.856V9.171h1.801V12.774z M5.657,7.972H3.856v-3.6h1.801V7.972z
		 M8.657,12.774H6.856V9.171h1.801V12.774z M8.657,7.972H6.856v-3.6h1.801V7.972z M12.257,12.774h-1.8V9.171h1.8V12.774z
		 M12.257,7.972h-1.8v-3.6h1.8V7.972z M15.259,12.774h-1.801V9.171h1.801V12.774z M15.259,7.972h-1.801v-3.6h1.801V7.972z"/>
</g>
</svg>
