<?xml version="1.0" encoding="utf-8"?>
<!-- Generator: Adobe Illustrator 16.0.0, SVG Export Plug-In . SVG Version: 6.00 Build 0)  -->
<!DOCTYPE svg PUBLIC "-//W3C//DTD SVG 1.1//EN" "http://www.w3.org/Graphics/SVG/1.1/DTD/svg11.dtd">
<svg version="1.1" id="Layer_1" xmlns="http://www.w3.org/2000/svg" xmlns:xlink="http://www.w3.org/1999/xlink" x="0px" y="0px"
	 width="17.884px" height="25.247px" viewBox="0 0 17.884 25.247" enable-background="new 0 0 17.884 25.247" xml:space="preserve">
<path fill="#FFFFFF" d="M9.177,15.779H8.709c-2.486,0-4.5-2.015-4.5-4.5V4.5c0-2.486,2.014-4.5,4.5-4.5h0.467
	c2.485,0,4.5,2.014,4.5,4.5v6.779C13.676,13.764,11.662,15.779,9.177,15.779"/>
<path fill="#FFFFFF" d="M0.001,10.519h2.104c0,0,0.011,6.843,6.843,6.843c6.831,0,6.938-6.938,6.938-6.938h1.997
	c-0.041,0.704-0.315,4.103-3.139,6.521c-1.608,1.377-3.327,1.824-4.224,1.989v4.208h5.258v2.104H2.375v-2.104h4.991v-4.208
	c-0.861-0.026-2.431-0.208-3.956-1.229C-0.06,15.379-0.008,10.9,0.001,10.519"/>
</svg>
