<?xml version="1.0" encoding="utf-8"?>
<!-- Generator: Adobe Illustrator 16.0.0, SVG Export Plug-In . SVG Version: 6.00 Build 0)  -->
<!DOCTYPE svg PUBLIC "-//W3C//DTD SVG 1.1//EN" "http://www.w3.org/Graphics/SVG/1.1/DTD/svg11.dtd">
<svg version="1.1" id="Layer_1" xmlns="http://www.w3.org/2000/svg" xmlns:xlink="http://www.w3.org/1999/xlink" x="0px" y="0px"
	 width="19.716px" height="20.746px" viewBox="0 0 19.716 20.746" enable-background="new 0 0 19.716 20.746" xml:space="preserve">
<g>
	<path fill="none" d="M18.069,10.373c0,4.535-3.678,8.213-8.213,8.213s-8.211-3.678-8.211-8.213c0-4.536,3.676-8.213,8.211-8.213
		S18.069,5.836,18.069,10.373"/>
	<circle fill="none" stroke="#878787" stroke-width="0.5" stroke-miterlimit="10" cx="9.857" cy="10.373" r="8.212"/>
	<path fill="#878787" d="M14.675,4.105l-1.371,0.512l-1.021-0.512h-0.67l-0.67,0.83c0,0,0.893,1.723,1.053,1.818
		c0.16,0.097-1.756-1.323-1.756-1.323L8.644,5.432L7.079,6.914l-0.67,1.596l0.895,1.469c0.537,0.489,1.074,0.979,1.611,1.467
		c0.324,0.111,0.648,0.225,0.975,0.336c0.143,0.035,0.342,0.113,0.494,0.287c0.164,0.188,0.178,0.381,0.287,0.941
		c0.033,0.178,0.088,0.436,0.158,0.75c0.041,0.207,0.098,0.529,0.145,0.926c0.041,0.346,0.037,0.426,0.064,0.543
		c0.066,0.287,0.295,0.672,1.053,1.053c0.213,0.068,0.424,0.139,0.637,0.207c0.25-0.383,0.5-0.766,0.75-1.148
		c-0.127-0.271-0.254-0.543-0.383-0.814c-0.08-0.334-0.02-0.533,0.049-0.654c0,0,0.117-0.205,0.957-0.574l0.033-2.043l1.18-1.403
		l0.574-1.597l-3-0.573l-0.318-0.798l2.936,0.478l1.246,0.703l1.318,0.83L16.474,5.51L14.675,4.105z"/>
	<polygon fill="#878787" points="14.548,13.169 14.165,14.189 15.569,13.457 	"/>
	<polygon fill="#878787" points="5.403,3.47 5.931,5.446 4.337,5.956 3.251,5.493 	"/>
	<polygon fill="#878787" points="1.677,11.101 3.786,11.382 5.103,12.976 4.304,13.679 2.513,14.048 	"/>
</g>
</svg>
