<?xml version="1.0" encoding="utf-8"?>
<!-- Generator: Adobe Illustrator 16.0.0, SVG Export Plug-In . SVG Version: 6.00 Build 0)  -->
<!DOCTYPE svg PUBLIC "-//W3C//DTD SVG 1.1//EN" "http://www.w3.org/Graphics/SVG/1.1/DTD/svg11.dtd">
<svg version="1.1" id="Layer_1" xmlns="http://www.w3.org/2000/svg" xmlns:xlink="http://www.w3.org/1999/xlink" x="0px" y="0px"
	 width="20.543px" height="17.289px" viewBox="0 0 20.543 17.289" enable-background="new 0 0 20.543 17.289" xml:space="preserve">
<g>
	<path fill="#0083DB" d="M1.674,3.508c-0.41,0.312-0.82,0.623-1.229,0.934v7.472c0.408,0.311,0.818,0.623,1.229,0.934h2.455V9.11
		h12.283v3.735h2.352c0.445-0.311,0.889-0.623,1.334-0.934V4.441c-0.41-0.311-0.818-0.622-1.229-0.934h-2.457v3.734H4.129V3.508
		H1.674z"/>
	<rect x="5.358" y="0.706" fill="#0083DB" width="9.826" height="5.604"/>
	<rect x="5.358" y="10.044" fill="#0083DB" width="9.826" height="6.537"/>
</g>
<g display="none">
	<g display="inline">
		<defs>
			<rect id="SVGID_1_" x="-1275.508" y="379.566" width="1920" height="1080"/>
		</defs>
		<clipPath id="SVGID_2_">
			<use xlink:href="#SVGID_1_"  overflow="visible"/>
		</clipPath>
		<path clip-path="url(#SVGID_2_)" fill="#FFFFFF" d="M343.843,466.352c-3.424-1.654-6.848-3.309-10.271-4.962l10.271-4.925
			l10.271,4.925C350.691,463.043,347.267,464.697,343.843,466.352"/>
	</g>
	<g display="inline">
		<defs>
			<rect id="SVGID_3_" x="-1275.508" y="379.566" width="1920" height="1080"/>
		</defs>
		<clipPath id="SVGID_4_">
			<use xlink:href="#SVGID_3_"  overflow="visible"/>
		</clipPath>
		<path clip-path="url(#SVGID_4_)" fill="#FFFFFF" d="M343.843,471.014c-2.968-1.435-5.936-2.866-8.901-4.301
			c-0.456,0.219-0.912,0.438-1.369,0.656c3.424,1.654,6.848,3.309,10.271,4.962c3.424-1.653,6.849-3.308,10.271-4.962
			c-0.457-0.219-0.914-0.438-1.369-0.656C349.778,468.147,346.81,469.58,343.843,471.014"/>
	</g>
	<g display="inline">
		<defs>
			<rect id="SVGID_5_" x="-1275.508" y="379.566" width="1920" height="1080"/>
		</defs>
		<clipPath id="SVGID_6_">
			<use xlink:href="#SVGID_5_"  overflow="visible"/>
		</clipPath>
		<path clip-path="url(#SVGID_6_)" fill="#FFFFFF" d="M343.843,468.988c-2.968-1.434-5.936-2.867-8.901-4.301
			c-0.456,0.219-0.912,0.438-1.369,0.656c3.424,1.653,6.848,3.309,10.271,4.963c3.424-1.654,6.849-3.31,10.271-4.963
			c-0.457-0.219-0.914-0.438-1.369-0.656C349.778,466.121,346.81,467.555,343.843,468.988"/>
	</g>
	<g display="inline">
		<defs>
			<rect id="SVGID_7_" x="-1275.508" y="379.566" width="1920" height="1080"/>
		</defs>
		<clipPath id="SVGID_8_">
			<use xlink:href="#SVGID_7_"  overflow="visible"/>
		</clipPath>
		<path clip-path="url(#SVGID_8_)" fill="#FFFFFF" d="M343.843,466.962c-2.968-1.436-5.936-2.867-8.901-4.301
			c-0.456,0.219-0.912,0.438-1.369,0.656c3.424,1.653,6.848,3.31,10.271,4.961c3.424-1.651,6.849-3.308,10.271-4.961
			c-0.457-0.219-0.914-0.438-1.369-0.656C349.778,464.095,346.81,465.527,343.843,466.962"/>
	</g>
	<g display="inline">
		<defs>
			<rect id="SVGID_9_" x="-1275.508" y="379.566" width="1920" height="1080"/>
		</defs>
		<clipPath id="SVGID_10_">
			<use xlink:href="#SVGID_9_"  overflow="visible"/>
		</clipPath>
		<polygon clip-path="url(#SVGID_10_)" fill="#FFFFFF" points="389.799,472.447 370.688,472.447 370.688,461.781 373.354,461.781 
			373.354,467.559 374.688,467.559 374.688,461.781 376.465,461.781 376.465,466.225 377.799,466.225 377.799,461.781 
			379.577,461.781 379.577,467.559 380.911,467.559 380.911,461.781 382.688,461.781 382.688,466.225 384.022,466.225 
			384.022,461.781 385.799,461.781 385.799,467.559 387.133,467.559 387.133,461.781 389.799,461.781 		"/>
	</g>
	<g display="inline">
		<defs>
			<rect id="SVGID_11_" x="-1275.508" y="379.566" width="1920" height="1080"/>
		</defs>
		<clipPath id="SVGID_12_">
			<use xlink:href="#SVGID_11_"  overflow="visible"/>
		</clipPath>
		<polygon clip-path="url(#SVGID_12_)" fill="#FFFFFF" points="370.688,457.336 370.688,460.447 389.799,460.447 389.799,457.336 
			388.466,457.336 388.466,459.113 372.021,459.113 372.021,457.336 		"/>
	</g>
	<g display="inline">
		<defs>
			<rect id="SVGID_13_" x="-1275.508" y="379.566" width="1920" height="1080"/>
		</defs>
		<clipPath id="SVGID_14_">
			<use xlink:href="#SVGID_13_"  overflow="visible"/>
		</clipPath>
		<path clip-path="url(#SVGID_14_)" fill="#FFFFFF" d="M420.869,459.99v-3.201h-3.202v0.642h-7.684v-0.642h-3.202v3.201h0.641
			v10.888h-0.641v3.199h3.202v-0.64h7.684v0.64h3.202v-3.199h-0.642V459.99H420.869z M419.258,472.596h-10.866v-14.325h10.866
			V472.596z"/>
	</g>
	<g display="inline">
		<defs>
			<rect id="SVGID_15_" x="-1275.508" y="379.566" width="1920" height="1080"/>
		</defs>
		<clipPath id="SVGID_16_">
			<use xlink:href="#SVGID_15_"  overflow="visible"/>
		</clipPath>
		<path clip-path="url(#SVGID_16_)" fill="#FFFFFF" d="M519.66,460.329c-2.256-0.053-4.247,1.399-4.499,1.589
			c-0.748,0.56-1.262,1.153-1.587,1.587v-1.059h-1.06v3.175h3.176v-1.059h-1.059c0.292-0.424,0.796-1.047,1.587-1.588
			c0.324-0.221,1.76-1.153,3.44-1.059c2.181,0.123,5.026,1.995,5.026,5.027c0,2.79-2.405,5.077-5.026,5.028
			c-1.891-0.037-3.652-1.283-4.499-3.177c-0.177,0.177-0.354,0.353-0.528,0.529h-1.059c1.122,2.55,3.521,4.215,6.086,4.232
			c3.402,0.023,6.613-2.858,6.613-6.614C526.274,462.91,522.527,460.396,519.66,460.329"/>
	</g>
	<g display="inline">
		<defs>
			<rect id="SVGID_17_" x="-1275.508" y="379.566" width="1920" height="1080"/>
		</defs>
		<clipPath id="SVGID_18_">
			<use xlink:href="#SVGID_17_"  overflow="visible"/>
		</clipPath>
		<path clip-path="url(#SVGID_18_)" fill="#FFFFFF" d="M440.402,460.258c-0.41,0.313-0.819,0.623-1.229,0.934v7.471
			c0.409,0.312,0.818,0.623,1.229,0.935h2.456v-3.734h12.282v3.734h2.353c0.443-0.312,0.888-0.623,1.333-0.935v-7.471
			c-0.409-0.311-0.818-0.621-1.229-0.934h-2.456v3.733h-12.282v-3.733H440.402z"/>
	</g>
	<g display="inline">
		<defs>
			<rect id="SVGID_19_" x="-1275.508" y="379.566" width="1920" height="1080"/>
		</defs>
		<clipPath id="SVGID_20_">
			<use xlink:href="#SVGID_19_"  overflow="visible"/>
		</clipPath>
		<rect x="444.086" y="457.457" clip-path="url(#SVGID_20_)" fill="#FFFFFF" width="9.826" height="5.604"/>
	</g>
	<g display="inline">
		<defs>
			<rect id="SVGID_21_" x="-1275.508" y="379.566" width="1920" height="1080"/>
		</defs>
		<clipPath id="SVGID_22_">
			<use xlink:href="#SVGID_21_"  overflow="visible"/>
		</clipPath>
		<rect x="444.086" y="466.795" clip-path="url(#SVGID_22_)" fill="#FFFFFF" width="9.826" height="6.536"/>
	</g>
	<g display="inline">
		<defs>
			<rect id="SVGID_23_" x="-1275.508" y="379.566" width="1920" height="1080"/>
		</defs>
		<clipPath id="SVGID_24_">
			<use xlink:href="#SVGID_23_"  overflow="visible"/>
		</clipPath>
		<path clip-path="url(#SVGID_24_)" fill="#FFFFFF" d="M494.274,475.106h-16.804v-4.103h6.302c0.699,0.405,1.398,0.813,2.101,1.222
			c0.7-0.407,1.4-0.815,2.101-1.222h2.987h3.313V475.106z"/>
	</g>
	<g display="inline">
		<defs>
			<rect id="SVGID_25_" x="-1275.508" y="379.566" width="1920" height="1080"/>
		</defs>
		<clipPath id="SVGID_26_">
			<use xlink:href="#SVGID_25_"  overflow="visible"/>
		</clipPath>
		<path clip-path="url(#SVGID_26_)" fill="#FFFFFF" d="M485.873,471.004c-1.05-0.815-2.103-1.632-3.15-2.445v-2.444
			c0.7,0.407,1.4,0.815,2.102,1.223v-8.557h2.101v8.557c0.7-0.406,1.4-0.814,2.101-1.223v2.444
			C487.973,469.373,486.923,470.188,485.873,471.004"/>
	</g>
	<g display="inline">
		<defs>
			<rect id="SVGID_27_" x="-1275.508" y="379.566" width="1920" height="1080"/>
		</defs>
		<clipPath id="SVGID_28_">
			<use xlink:href="#SVGID_27_"  overflow="visible"/>
		</clipPath>
		<path clip-path="url(#SVGID_28_)" fill="#FFFFFF" d="M552.492,459.566c-3.866,0-7,3.134-7,7s3.134,7,7,7s7-3.134,7-7
			S556.358,459.566,552.492,459.566 M553.492,467.566v4h-2v-4h-4v-2h4v-4h2v4h4v2H553.492z"/>
	</g>
	<g display="inline">
		<defs>
			<rect id="SVGID_29_" x="-1275.508" y="379.566" width="1920" height="1080"/>
		</defs>
		<clipPath id="SVGID_30_">
			<use xlink:href="#SVGID_29_"  overflow="visible"/>
		</clipPath>
		<path clip-path="url(#SVGID_30_)" fill="#FFFFFF" d="M-1135.508,457.066c0,14.063-11.864,25.461-26.5,25.461
			c-14.637,0-26.5-11.397-26.5-25.461c0-14.063,11.863-25.461,26.5-25.461C-1147.373,431.605-1135.508,443.004-1135.508,457.066"/>
	</g>
	<g display="inline">
		<defs>
			<rect id="SVGID_31_" x="-1275.508" y="379.566" width="1920" height="1080"/>
		</defs>
		<clipPath id="SVGID_32_">
			<use xlink:href="#SVGID_31_"  overflow="visible"/>
		</clipPath>
		<path clip-path="url(#SVGID_32_)" fill="#1B3C6A" d="M-1176.008,458.066c2.24,2.676,6.21,4.086,9,3c1.083-0.421,2.086-1.248,3-2
			c1.695-1.396,1.945-2.115,3-3c2.438-2.047,5.626-2.009,6-2c3.301,0.083,6.535,2.146,8,5c2.897,5.644-2.289,12.105-3,13
			c-3.959,4.979-9.682,5.915-11.893,6.271c-1.541,0.25-8.24,1.161-14.107-2.433c-8.941-5.476-13.465-19.894-7-30.84
			c6.717-11.372,21.464-12.229,30-9c8.113,3.068,12.471,10.53,12.5,10.5c0.014-0.014-3.409-5.313-10-8
			c-6.542-2.968-14.514-0.852-15.542-0.511c-3.669,1.213-5.94,3.075-6.458,3.511c-1.518,1.277-3.883,3.463-5,7
			C-1177.792,449.607-1179.092,454.381-1176.008,458.066"/>
	</g>
	<g display="inline">
		<defs>
			<rect id="SVGID_33_" x="-1275.508" y="379.566" width="1920" height="1080"/>
		</defs>
		<clipPath id="SVGID_34_">
			<use xlink:href="#SVGID_33_"  overflow="visible"/>
		</clipPath>
		<path clip-path="url(#SVGID_34_)" fill="#EE243D" d="M-1154.508,479.566c0,0,17-6,17-22s-14.827-20.986-21.425-20.65
			c-3.525,0.179-6.798,0.996-6.798,0.996c-2.061,0.645-3.514,1.438-3.951,1.683c-2.432,1.355-4.699,3.554-5.887,5.056
			c-0.428,0.54-2.758,3.495-2.433,8.207c0.11,1.923,0.599,2.852,0.974,3.673c-0.283-1.791-0.592-5.552,1.521-8.963
			c4.143-6.688,13.559-6.094,15-6c6.309,0.412,12.958,4.04,16,10C-1140.102,460.196-1143.758,472.734-1154.508,479.566"/>
	</g>
	<g display="inline">
		<defs>
			<rect id="SVGID_35_" x="-1275.508" y="379.566" width="1920" height="1080"/>
		</defs>
		<clipPath id="SVGID_36_">
			<use xlink:href="#SVGID_35_"  overflow="visible"/>
		</clipPath>
		<path clip-path="url(#SVGID_36_)" fill="#FFFFFF" d="M-779.508,483.066c-14.062,0-25.5-11.438-25.5-25.5
			c0-14.061,11.438-25.5,25.5-25.5h306c14.062,0,25.5,11.439,25.5,25.5c0,14.062-11.438,25.5-25.5,25.5H-779.508z"/>
	</g>
	<g display="inline">
		<defs>
			<rect id="SVGID_37_" x="-1275.508" y="379.566" width="1920" height="1080"/>
		</defs>
		<clipPath id="SVGID_38_">
			<use xlink:href="#SVGID_37_"  overflow="visible"/>
		</clipPath>
		<path clip-path="url(#SVGID_38_)" fill="#2F80C3" d="M-473.508,434.566c12.683,0,23,10.318,23,23s-10.317,23-23,23h-306
			c-12.683,0-23-10.318-23-23s10.317-23,23-23H-473.508 M-473.508,429.566h-306c-15.464,0-28,12.536-28,28s12.536,28,28,28h306
			c15.464,0,28-12.536,28-28S-458.044,429.566-473.508,429.566"/>
	</g>
	<g display="inline">
		<defs>
			<rect id="SVGID_39_" x="-1275.508" y="379.566" width="1920" height="1080"/>
		</defs>
		<clipPath id="SVGID_40_">
			<use xlink:href="#SVGID_39_"  overflow="visible"/>
		</clipPath>
		<path clip-path="url(#SVGID_40_)" fill="#FFFFFF" d="M-771.791,507.38h-10.622c-1.157,0-2.096-0.938-2.096-2.097v-10.622
			c0-1.156,0.938-2.096,2.096-2.096h10.622c1.157,0,2.096,0.938,2.096,2.096v10.622C-769.695,506.441-770.633,507.38-771.791,507.38
			"/>
	</g>
	<g display="inline">
		<defs>
			<rect id="SVGID_41_" x="-1275.508" y="379.566" width="1920" height="1080"/>
		</defs>
		<clipPath id="SVGID_42_">
			<use xlink:href="#SVGID_41_"  overflow="visible"/>
		</clipPath>
		<path clip-path="url(#SVGID_42_)" fill="none" stroke="#C9C9C9" stroke-miterlimit="10" d="M-771.791,507.38h-10.622
			c-1.157,0-2.096-0.938-2.096-2.097v-10.622c0-1.156,0.938-2.096,2.096-2.096h10.622c1.157,0,2.096,0.938,2.096,2.096v10.622
			C-769.695,506.441-770.633,507.38-771.791,507.38z"/>
	</g>
</g>
</svg>
