<?xml version="1.0" encoding="utf-8"?>
<!-- Generator: Adobe Illustrator 16.0.0, SVG Export Plug-In . SVG Version: 6.00 Build 0)  -->
<!DOCTYPE svg PUBLIC "-//W3C//DTD SVG 1.1//EN" "http://www.w3.org/Graphics/SVG/1.1/DTD/svg11.dtd">
<svg version="1.1" id="Layer_1" xmlns="http://www.w3.org/2000/svg" xmlns:xlink="http://www.w3.org/1999/xlink" x="0px" y="0px"
	 width="17.881px" height="20.517px" viewBox="0 0 17.881 20.517" enable-background="new 0 0 17.881 20.517" xml:space="preserve">
<path fill="none" stroke="#7B7B7B" stroke-miterlimit="10" d="M4.331,17.358c-0.65-0.415-1.664-1.182-2.495-2.453
	C0.01,12.112,0.553,9.158,0.653,8.659c0.114-0.569,0.8-3.686,3.857-5.547c2.107-1.282,4.227-1.29,5.5-1.126"/>
<polygon fill="#7B7B7B" points="7.75,3.34 9.711,1.962 8.333,0 9.75,0.247 11.13,2.209 9.167,3.588 "/>
<path fill="none" stroke="#7B7B7B" stroke-miterlimit="10" d="M13.55,3.16c0.648,0.415,1.664,1.182,2.494,2.453
	c1.826,2.793,1.283,5.747,1.184,6.246c-0.113,0.568-0.8,3.686-3.857,5.547c-2.106,1.281-4.226,1.29-5.5,1.126"/>
<polygon fill="#7B7B7B" points="10.131,17.177 8.168,18.556 9.548,20.517 8.13,20.271 6.751,18.308 8.713,16.929 "/>
</svg>
