<?xml version="1.0" encoding="utf-8"?>
<!-- Generator: Adobe Illustrator 16.0.0, SVG Export Plug-In . SVG Version: 6.00 Build 0)  -->
<!DOCTYPE svg PUBLIC "-//W3C//DTD SVG 1.1//EN" "http://www.w3.org/Graphics/SVG/1.1/DTD/svg11.dtd">
<svg version="1.1" id="Layer_1" xmlns="http://www.w3.org/2000/svg" xmlns:xlink="http://www.w3.org/1999/xlink" x="0px" y="0px"
	 width="19.716px" height="20.746px" viewBox="0 0 19.716 20.746" enable-background="new 0 0 19.716 20.746" xml:space="preserve">
<g>
	<path fill="none" stroke="#878787" stroke-linecap="round" stroke-miterlimit="10" d="M9.116,9.151
		c0.662-1.354,1.715-2.878,3.406-3.983c0.162-0.105,0.322-0.204,0.484-0.294"/>
	<path fill="none" stroke="#878787" stroke-linecap="round" stroke-miterlimit="10" d="M9.897,13.579
		c0.271-0.65,0.689-1.896,0.52-3.46c-0.09-0.812-0.311-1.479-0.52-1.967V8.151C9.476,7.573,8.731,6.699,7.563,5.945
		C6.351,5.164,5.202,4.85,4.491,4.71"/>
	<path fill="none" stroke="#878787" stroke-miterlimit="10" d="M0.524,3.2C1.63,2.659,3.337,2.051,5.267,2.277
		c1.365,0.159,1.822,0.615,1.992,0.814C7.612,3.507,7.841,4.127,7.78,5.046C7.772,5.147,7.714,5.344,7.606,5.569
		C7.136,6.548,5.878,7.216,4.735,7.075C4.29,7.019,3.923,6.849,3.478,6.557C2.784,6.105,1.562,5.14,0.524,3.2z"/>
	<path fill="none" stroke="#878787" stroke-miterlimit="10" d="M18.653,0.766c-1.168,1.954-2.424,3.113-3.252,3.76
		c-0.705,0.548-1.283,0.87-1.986,0.832c-0.105-0.005-1.234-0.085-1.75-1.014c-0.391-0.705-0.172-1.433-0.102-1.667
		c0.264-0.887,1.592-1.69,1.842-1.797C15.44,0.018,17.476,0.411,18.653,0.766z"/>
	<path fill="#878787" d="M10.345,12.682c-1.146-0.029-2.707,0.055-4.477,0.533c-2.465,0.664-4.262,1.803-5.344,2.615
		c0.713-0.014,1.342,0.033,1.879,0.107c0.309,0.043,0.768,0.121,1.338,0.27c1.998,0.521,2.588,1.178,4.16,1.574
		c0.51,0.131,1.275,0.268,2.258,0.244c-0.131-0.129-0.346-0.314-0.652-0.467c-0.516-0.256-0.814-0.188-1.053-0.336
		c-0.281-0.174-0.527-0.684-0.256-2.25c1.191,0.402,2.383,0.803,3.574,1.203c1.09,0.111,2.182,0.225,3.273,0.336
		c0.502,0.377,1.006,0.756,1.51,1.133h3c-0.541-0.836-1.846-2.598-4.225-3.799C13.243,12.793,11.329,12.676,10.345,12.682"/>
	<path fill="#878787" d="M0.161,16.749c0.039-0.215,1.025-0.209,1.258-0.195c2.475,0.152,4.064,1.502,6.324,1.889
		c0.691,0.119,1.781,0.203,3.211-0.127c-0.115-0.273-0.314-0.629-0.68-0.895c-0.609-0.441-1.217-0.293-1.525-0.742
		c-0.105-0.154-0.199-0.414-0.111-0.865c1.072,0.4,2.146,0.801,3.217,1.201c0.984,0.092,1.967,0.186,2.951,0.277
		c0.477,0.396,0.951,0.795,1.428,1.191h3.287v1.316h-3.287c-2.84,0.195-5.68,0.391-8.518,0.586
		c-1.066-0.674-2.334-1.381-3.807-2.027c-1.092-0.48-2.127-0.854-3.076-1.146C0.521,17.079,0.136,16.889,0.161,16.749"/>
</g>
</svg>
