<?xml version="1.0" encoding="utf-8"?>
<!-- Generator: Adobe Illustrator 16.0.0, SVG Export Plug-In . SVG Version: 6.00 Build 0)  -->
<!DOCTYPE svg PUBLIC "-//W3C//DTD SVG 1.1//EN" "http://www.w3.org/Graphics/SVG/1.1/DTD/svg11.dtd">
<svg version="1.1" id="Layer_1" xmlns="http://www.w3.org/2000/svg" xmlns:xlink="http://www.w3.org/1999/xlink" x="0px" y="0px"
	 width="19.716px" height="20.746px" viewBox="0 0 19.716 20.746" enable-background="new 0 0 19.716 20.746" xml:space="preserve">
<g>
	<path fill="#878787" d="M15.673,7.786c0.453-0.027,1.139-0.129,1.896-0.484c1.014-0.477,1.654-1.176,1.979-1.586
		c-1.615-0.653-3.23-1.307-4.844-1.961V2.61c-0.221,0.088-0.441,0.176-0.66,0.264c-2.73,0.022-5.457,0.045-8.186,0.066
		C5.577,2.831,5.294,2.72,5.013,2.61v1.189c-1.615,0.639-3.23,1.277-4.846,1.916c0.342,0.41,0.971,1.063,1.938,1.533
		c0.771,0.375,1.471,0.496,1.939,0.537v7.246H0.167v3.104h19.381v-3.104h-3.875V7.786z M7.651,14.514H5.229V9.338h2.422V14.514z
		 M11.062,14.514H8.64V9.338h2.422V14.514z M14.472,14.514H12.05V9.338h2.422V14.514z"/>
</g>
</svg>
