<?xml version="1.0" encoding="utf-8"?>
<!-- Generator: Adobe Illustrator 16.0.0, SVG Export Plug-In . SVG Version: 6.00 Build 0)  -->
<!DOCTYPE svg PUBLIC "-//W3C//DTD SVG 1.1//EN" "http://www.w3.org/Graphics/SVG/1.1/DTD/svg11.dtd">
<svg version="1.1" id="Layer_1" xmlns="http://www.w3.org/2000/svg" xmlns:xlink="http://www.w3.org/1999/xlink" x="0px" y="0px"
	 width="19.716px" height="20.746px" viewBox="0 0 19.716 20.746" enable-background="new 0 0 19.716 20.746" xml:space="preserve">
<g>
	<path fill="#878787" d="M10.001,2.097C9.259,0.886,7.987,0.156,6.683,0.232C6.499,0.242,5.372,0.345,4.47,1.248
		c0,0-0.82,0.859-0.955,2.409C3.315,5.906,5.813,9.031,9.892,11.63c0.287-0.192,6.082-4.133,6.375-7.642
		c0.047-0.569,0.148-1.642-0.537-2.586c-0.818-1.128-2.186-1.243-2.352-1.255C12.046,0.052,10.735,0.82,10.001,2.097"/>
	<path fill="#878787" d="M2.292,6.544v7.998l4.209,3.418v2.645h2.967v-3.547c-0.25-1.469-0.813-2.357-1.289-2.902
		c-0.781-0.895-1.314-0.84-2.322-1.969c-0.969-1.084-1.297-2.06-1.547-1.965c-0.195,0.072-0.172,0.74-0.066,1.257
		c0.342,1.657,1.688,2.485,1.516,2.708c-0.119,0.158-0.889-0.148-1.418-0.613c-0.324-0.285-0.52-0.594-0.629-0.805
		c-0.318-2.651-0.547-4.582-0.58-5.192C3.126,7.465,3.112,7.144,2.89,6.882C2.663,6.619,2.374,6.558,2.292,6.544"/>
	<path fill="#878787" d="M17.423,6.544v7.998l-4.209,3.418v2.645h-2.967v-3.547c0.25-1.469,0.813-2.357,1.289-2.902
		c0.781-0.895,1.314-0.84,2.322-1.969c0.969-1.084,1.297-2.06,1.547-1.965c0.195,0.072,0.172,0.74,0.064,1.257
		c-0.34,1.657-1.686,2.485-1.516,2.708c0.121,0.158,0.891-0.148,1.42-0.613c0.324-0.285,0.52-0.594,0.629-0.805
		c0.318-2.651,0.547-4.582,0.58-5.192c0.006-0.111,0.02-0.433,0.242-0.694C17.052,6.619,17.341,6.558,17.423,6.544"/>
</g>
</svg>
