<?xml version="1.0" encoding="utf-8"?>
<!-- Generator: Adobe Illustrator 16.0.0, SVG Export Plug-In . SVG Version: 6.00 Build 0)  -->
<!DOCTYPE svg PUBLIC "-//W3C//DTD SVG 1.1//EN" "http://www.w3.org/Graphics/SVG/1.1/DTD/svg11.dtd">
<svg version="1.1" id="Layer_1" xmlns="http://www.w3.org/2000/svg" xmlns:xlink="http://www.w3.org/1999/xlink" x="0px" y="0px"
	 width="21.256px" height="20.117px" viewBox="0 0 21.256 20.117" enable-background="new 0 0 21.256 20.117" xml:space="preserve">
<path fill="#FFFFFF" d="M21.256,18.36c-2.341-2.049-4.683-4.098-7.024-6.147c0.361-0.43,0.904-1.181,1.232-2.247
	c0,0,0.283-0.994,0.283-2.092C15.747,3.525,12.222,0,7.874,0C3.525,0,0,3.525,0,7.873s3.525,7.875,7.874,7.875
	c1.102,0,2.096-0.285,2.097-0.285c1.238-0.389,2.071-1.078,2.504-1.493c2.34,2.049,4.683,4.098,7.025,6.147L21.256,18.36z
	 M1.853,7.873c0-3.325,2.695-6.021,6.021-6.021c3.325,0,6.02,2.696,6.02,6.021c0,3.325-2.694,6.021-6.02,6.021
	C4.548,13.894,1.853,11.198,1.853,7.873"/>
</svg>
