<?xml version="1.0" encoding="utf-8"?>
<!-- Generator: Adobe Illustrator 16.0.0, SVG Export Plug-In . SVG Version: 6.00 Build 0)  -->
<!DOCTYPE svg PUBLIC "-//W3C//DTD SVG 1.1//EN" "http://www.w3.org/Graphics/SVG/1.1/DTD/svg11.dtd">
<svg version="1.1" id="Layer_1" xmlns="http://www.w3.org/2000/svg" xmlns:xlink="http://www.w3.org/1999/xlink" x="0px" y="0px"
	 width="25.447px" height="25.448px" viewBox="0 0 25.447 25.448" enable-background="new 0 0 25.447 25.448" xml:space="preserve">
<path fill="#2F80C3" d="M9.832,0C4.402,0,0,4.401,0,9.831c0,5.43,4.402,9.832,9.832,9.832c2.42,0,4.633-0.877,6.346-2.328
	c2.703,2.703,5.408,5.408,8.111,8.113c0.387-0.387,0.771-0.772,1.157-1.158l-8.112-8.111c1.451-1.714,2.33-3.926,2.33-6.347
	C19.665,4.401,15.262,0,9.832,0 M9.832,17.35c-4.152,0-7.518-3.366-7.518-7.519c0-4.152,3.366-7.518,7.518-7.518
	c4.153,0,7.519,3.366,7.519,7.518C17.351,13.984,13.985,17.35,9.832,17.35"/>
</svg>
